<mxfile host="app.diagrams.net" modified="2021-06-24T13:35:22.407Z" agent="5.0 (X11; Linux x86_64) AppleWebKit/537.36 (KHTML, like Gecko) Chrome/91.0.4472.114 Safari/537.36" etag="LpZiyDNli_de8IKUBUPl" version="14.6.13" type="github">
  <diagram id="wzWLNerfpc3qSXWMV98Z" name="Page-1">
    <mxGraphModel dx="868" dy="801" grid="0" gridSize="10" guides="1" tooltips="1" connect="1" arrows="1" fold="1" page="0" pageScale="1" pageWidth="850" pageHeight="1100" math="0" shadow="0">
      <root>
        <mxCell id="0" />
        <mxCell id="1" parent="0" />
        <mxCell id="2yeL1Ock9NKcmdCJJM63-5" value="" style="edgeStyle=orthogonalEdgeStyle;rounded=0;orthogonalLoop=1;jettySize=auto;html=1;fontStyle=1" edge="1" parent="1" source="2yeL1Ock9NKcmdCJJM63-2" target="2yeL1Ock9NKcmdCJJM63-6">
          <mxGeometry relative="1" as="geometry">
            <mxPoint x="128" y="22" as="targetPoint" />
          </mxGeometry>
        </mxCell>
        <mxCell id="2yeL1Ock9NKcmdCJJM63-2" value="" style="ellipse;html=1;shape=endState;fillColor=#000000;strokeColor=#ff0000;fontStyle=1" vertex="1" parent="1">
          <mxGeometry x="63" y="7" width="30" height="30" as="geometry" />
        </mxCell>
        <mxCell id="2yeL1Ock9NKcmdCJJM63-3" value="&lt;span&gt;Chèn ảnh&lt;/span&gt;" style="text;html=1;strokeColor=none;fillColor=none;align=center;verticalAlign=middle;whiteSpace=wrap;rounded=0;fontStyle=1" vertex="1" parent="1">
          <mxGeometry x="31.5" y="45" width="93" height="20" as="geometry" />
        </mxCell>
        <mxCell id="2yeL1Ock9NKcmdCJJM63-10" value="" style="edgeStyle=orthogonalEdgeStyle;rounded=0;orthogonalLoop=1;jettySize=auto;html=1;" edge="1" parent="1" source="2yeL1Ock9NKcmdCJJM63-6" target="2yeL1Ock9NKcmdCJJM63-9">
          <mxGeometry relative="1" as="geometry" />
        </mxCell>
        <mxCell id="2yeL1Ock9NKcmdCJJM63-6" value="&lt;span&gt;Chọn ảnh muốn chèn từ thư viện&lt;/span&gt;" style="rhombus;whiteSpace=wrap;html=1;fontStyle=1" vertex="1" parent="1">
          <mxGeometry x="314" y="-18" width="102" height="80" as="geometry" />
        </mxCell>
        <mxCell id="2yeL1Ock9NKcmdCJJM63-7" value="Nhấn nút chèn khi edit ghi chú" style="text;html=1;strokeColor=none;fillColor=none;align=center;verticalAlign=middle;whiteSpace=wrap;rounded=0;fontStyle=1" vertex="1" parent="1">
          <mxGeometry x="98" y="-2" width="128" height="20" as="geometry" />
        </mxCell>
        <mxCell id="2yeL1Ock9NKcmdCJJM63-9" value="ghi chú chèn ảnh ở vị trí chỉ định." style="whiteSpace=wrap;html=1;fontStyle=1;" vertex="1" parent="1">
          <mxGeometry x="530" y="-8" width="120" height="60" as="geometry" />
        </mxCell>
      </root>
    </mxGraphModel>
  </diagram>
</mxfile>
